<svg fill="none" height="18" viewBox="0 0 20 18" width="20" xmlns="http://www.w3.org/2000/svg"><g fill="#000"><path d="m18.4003 4.16668h-2.8413l-1.3333-3.333336h-8.45137l-1.33333 3.333336h-.441v-1.66667h-2v1.66667h-.40033c-.882337 0-1.59967.71733-1.59967 1.59966v9.78936c0 .8883.722667 1.611 1.611 1.611h16.778c.8883 0 1.611-.7227 1.611-1.611v-9.78936c0-.88233-.7173-1.59966-1.5997-1.59966zm-15.73363-1h.66666v1h-.66666zm16.66663 12.38902c0 .521-.4236.9443-.9443.9443h-16.778c-.52067 0-.944333-.4237-.944333-.9443v-9.78936c0-.51433.418663-.933.933003-.933h.40033 2 .89233l1.33334-3.33333h7.54863l1.3334 3.33333h3.2926c.5144 0 .933.41867.933.933z"/><path d="m10 5c-2.75708 0-5 2.24292-5 5 0 2.7571 2.24292 5 5 5 2.7571 0 5-2.2429 5-5 0-2.75708-2.2429-5-5-5zm0 9.1667c-2.2975 0-4.16667-1.8692-4.16667-4.1667s1.86917-4.16667 4.16667-4.16667 4.1667 1.86917 4.1667 4.16667-1.8692 4.1667-4.1667 4.1667z"/></g></svg>