<svg width="16" height="16" viewBox="0 0 16 16" fill="none" xmlns="http://www.w3.org/2000/svg">
<path d="M10.8285 11.3715C10.6864 11.5137 10.564 11.6699 10.4583 11.835L5.77178 8.99032C5.89572 8.68006 5.96596 8.34267 5.96596 7.98874C5.96596 7.63482 5.89572 7.29743 5.77205 6.98717L10.4596 4.16415C10.941 4.92028 11.785 5.42419 12.7462 5.42419C14.2416 5.42419 15.4583 4.20754 15.4583 2.71209C15.4583 1.21665 14.2416 0 12.7462 0C11.2508 0 10.0341 1.21665 10.0341 2.71209C10.0341 3.05273 10.1 3.37764 10.215 3.67814L5.52118 6.50496C5.03626 5.76618 4.20147 5.27665 3.2536 5.27665C1.75815 5.27665 0.541504 6.4933 0.541504 7.98874C0.541504 9.48419 1.75815 10.7008 3.2536 10.7008C4.20147 10.7008 5.03599 10.2113 5.52091 9.47253L10.2139 12.321C10.0973 12.6264 10.0338 12.9527 10.0338 13.2893C10.0338 14.0137 10.3159 14.6949 10.8282 15.207C11.3568 15.7356 12.0514 16 12.7459 16C13.4405 16 14.1351 15.7356 14.6636 15.207C15.176 14.6947 15.458 14.0137 15.458 13.2893C15.458 12.5649 15.176 11.8836 14.6636 11.3715C13.6062 10.3138 11.8859 10.3138 10.8285 11.3715ZM12.7462 0.542419C13.9425 0.542419 14.9159 1.51579 14.9159 2.71209C14.9159 3.9084 13.9425 4.88177 12.7462 4.88177C11.5499 4.88177 10.5765 3.9084 10.5765 2.71209C10.5765 1.51579 11.5496 0.542419 12.7462 0.542419ZM3.25387 10.1584C2.05756 10.1584 1.08419 9.18505 1.08419 7.98874C1.08419 6.79244 2.05756 5.81907 3.25387 5.81907C4.45017 5.81907 5.42354 6.79244 5.42354 7.98874C5.42354 9.18505 4.45017 10.1584 3.25387 10.1584ZM14.2802 14.8235C13.4343 15.6694 12.0579 15.6694 11.212 14.8235C10.8022 14.4137 10.5765 13.8686 10.5765 13.2893C10.5765 12.71 10.8022 12.1648 11.212 11.755C11.6351 11.3319 12.1905 11.1207 12.7462 11.1207C13.3019 11.1207 13.8573 11.3319 14.2804 11.755C14.6902 12.1648 14.9159 12.71 14.9159 13.2893C14.9159 13.8686 14.6902 14.4137 14.2802 14.8235Z" fill="black"/>
</svg>
